<?xml version="1.0" standalone="no"?><!DOCTYPE svg PUBLIC "-//W3C//DTD SVG 1.1//EN" "http://www.w3.org/Graphics/SVG/1.1/DTD/svg11.dtd"><svg t="1637203754713" class="icon" viewBox="0 0 1024 1024" version="1.1" xmlns="http://www.w3.org/2000/svg" p-id="2476" xmlns:xlink="http://www.w3.org/1999/xlink" width="200" height="200"><defs><style type="text/css"></style></defs><path d="M853.333333 554.666667a42.666667 42.666667 0 0 1 42.666667 42.666666v256a42.666667 42.666667 0 0 1-42.666667 42.666667h-256a42.666667 42.666667 0 0 1-42.666666-42.666667v-256a42.666667 42.666667 0 0 1 42.666666-42.666666h256zM298.666667 554.666667a42.666667 42.666667 0 0 1 42.666666 42.666666v85.333334h85.333334a42.666667 42.666667 0 0 1 0 85.333333H341.333333v85.333333a42.666667 42.666667 0 0 1-85.333333 0v-85.333333H170.666667a42.666667 42.666667 0 0 1 0-85.333333h85.333333v-85.333334a42.666667 42.666667 0 0 1 42.666667-42.666666z m512 85.333333h-170.666667v170.666667h170.666667v-170.666667zM426.666667 128a42.666667 42.666667 0 0 1 42.666666 42.666667v256a42.666667 42.666667 0 0 1-42.666666 42.666666H170.666667a42.666667 42.666667 0 0 1-42.666667-42.666666V170.666667a42.666667 42.666667 0 0 1 42.666667-42.666667h256z m426.666666 0a42.666667 42.666667 0 0 1 42.666667 42.666667v256a42.666667 42.666667 0 0 1-42.666667 42.666666h-256a42.666667 42.666667 0 0 1-42.666666-42.666666V170.666667a42.666667 42.666667 0 0 1 42.666666-42.666667h256zM384 213.333333H213.333333v170.666667h170.666667V213.333333z m426.666667 0h-170.666667v170.666667h170.666667V213.333333z" p-id="2477"></path></svg>